HIERARCHY
ROOT hip
{
	OFFSET 0.000000 0.000000 0.000000 
	CHANNELS 6 Xposition Yposition Zposition Xrotation Zrotation Yrotation
	JOINT abdomen
	{
		OFFSET 0.000000 3.402643 0.000000 
		CHANNELS 3 Xrotation Zrotation Yrotation
		JOINT chest
		{
			OFFSET 0.000000 8.438565 -0.680529 
			CHANNELS 3 Xrotation Zrotation Yrotation
			JOINT neck
			{
				OFFSET 0.000000 10.207942 -0.272212 
				CHANNELS 3 Xrotation Zrotation Yrotation
				JOINT head
				{
					OFFSET 0.000000 3.130431 0.000000 
					CHANNELS 3 Xrotation Zrotation Yrotation
					End Site
					{
						OFFSET 0.000000 3.130435 0.000000 
					}
				}
			}
			JOINT lCollar
			{
				OFFSET 3.470700 6.669187 -0.816635 
				CHANNELS 3 Yrotation Zrotation Xrotation
				JOINT lShldr
				{
					OFFSET 3.198488 0.000000 0.000000 
					CHANNELS 3 Zrotation Yrotation Xrotation
					JOINT lForeArm
					{
						OFFSET 10.139888 0.000000 0.000000 
						CHANNELS 3 Yrotation Zrotation Xrotation
						JOINT lHand
						{
							OFFSET 8.370511 0.000000 0.000000 
							CHANNELS 3 Zrotation Yrotation Xrotation
							End Site
							{
								OFFSET 4.083176 0.000000 0.000000 
							}
						}
					}
				}
			}
			JOINT rCollar
			{
				OFFSET -3.470700 6.669187 -0.816635 
				CHANNELS 3 Yrotation Zrotation Xrotation
				JOINT rShldr
				{
					OFFSET -3.198488 0.000000 0.000000 
					CHANNELS 3 Zrotation Yrotation Xrotation
					JOINT rForeArm
					{
						OFFSET -10.139888 0.000000 0.000000 
						CHANNELS 3 Yrotation Zrotation Xrotation
						JOINT rHand
						{
							OFFSET -8.370511 0.000000 0.000000 
							CHANNELS 3 Zrotation Yrotation Xrotation
							End Site
							{
								OFFSET -4.083176 0.000000 0.000000 
							}
						}
					}
				}
			}
		}
	}
	JOINT lThigh
	{
		OFFSET 5.308129 -1.633274 1.361059 
		CHANNELS 3 Xrotation Zrotation Yrotation
		JOINT lShin
		{
			OFFSET -2.041588 -20.007561 0.000000 
			CHANNELS 3 Xrotation Zrotation Yrotation
			JOINT lFoot
			{
				OFFSET 0.000000 -19.190928 -1.224953 
				CHANNELS 3 Xrotation Yrotation Zrotation
				End Site
				{
					OFFSET 0.000000 -2.449906 4.627600 
				}
			}
		}
	}
	JOINT rThigh
	{
		OFFSET -5.308129 -1.633274 1.361059 
		CHANNELS 3 Xrotation Zrotation Yrotation
		JOINT rShin
		{
			OFFSET 2.041588 -20.007561 0.000000 
			CHANNELS 3 Xrotation Zrotation Yrotation
			JOINT rFoot
			{
				OFFSET 0.000000 -19.190928 -1.224953 
				CHANNELS 3 Xrotation Yrotation Zrotation
				End Site
				{
					OFFSET 0.000000 -2.449906 4.627600 
				}
			}
		}
	}
}
MOTION
Frames: 16
Frame Time: 0.016667
-0.812261 44.168091 -0.086507 -3.115960 -4.700100 -13.533500 -18.096500 -4.165870 -1.800810 19.785101 -0.449178 -1.468560 20.657600 4.719800 0.823964 13.578500 7.223350 0.571438 2.000000 -2.000000 0.000000 -105.426003 -35.277699 -142.270004 58.652901 -0.285973 0.116814 0.234830 -0.157656 122.394997 -2.000000 2.000000 0.000000 51.586700 36.139801 123.192001 -47.998501 0.306333 0.101602 -0.200541 0.169565 138.195007 -9.133191 6.168098 2.939418 38.954575 2.971431 2.636712 -22.802849 3.215776 2.181632 -12.531717 4.563198 22.117357 32.322071 -3.002376 -2.288708 -15.621001 -10.679948 -3.033994 
-1.126798 44.187378 -0.013544 -3.391090 -4.854810 -14.546900 -18.115299 -4.614880 -2.248350 19.960899 -0.458960 -1.753040 21.085199 4.652770 -0.833735 13.822200 7.121380 -0.332336 2.000000 -2.000000 0.000000 -106.004997 -36.480499 -143.128006 61.201698 -0.280710 0.119860 0.233889 -0.157830 122.736000 -2.000000 2.000000 0.000000 51.194901 37.083000 126.246002 -52.822800 0.297465 0.108936 -0.203567 0.169807 137.110992 -8.315535 6.375617 2.973527 38.979198 3.033086 2.637961 -23.246611 3.885298 2.522151 -12.214760 5.070486 22.719740 32.363689 -2.987396 -2.313673 -15.479147 -10.316030 -2.809019 
-1.403610 44.215282 0.038461 -3.489500 -4.932290 -15.617900 -18.209999 -4.961550 -2.673350 19.990200 -0.439432 -2.007370 21.114700 4.848610 -2.172560 13.892000 7.158250 -1.078940 2.000000 -2.000000 0.000000 -106.262001 -37.497700 -143.910995 64.307198 -0.274123 0.123252 0.231141 -0.158307 123.732002 -2.000000 2.000000 0.000000 50.392601 37.468800 129.514999 -58.369598 0.286549 0.116412 -0.201167 0.159854 137.970993 -7.863219 6.535069 3.171776 39.093914 3.063954 2.627361 -23.477444 4.486987 2.860534 -12.099707 5.387131 22.850988 32.294258 -2.982897 -2.283820 -15.219401 -9.654484 -2.508863 
-1.680411 44.243061 0.090469 -3.578190 -5.019540 -16.688801 -18.294001 -5.308180 -3.097640 20.009800 -0.419903 -2.261620 21.136499 5.047850 -3.503080 13.952000 7.195330 -1.826680 2.000000 -2.000000 0.000000 -106.500000 -38.514801 -144.699997 67.422401 -0.267340 0.126290 0.228412 -0.158733 124.719002 -2.000000 2.000000 0.000000 49.619499 37.883598 132.792999 -63.916500 0.274961 0.122798 -0.198798 0.169400 138.820007 -7.306814 6.694950 3.390195 39.149433 3.101323 2.619390 -23.725224 5.105493 3.168268 -11.970055 5.692346 22.996367 32.157921 -2.971885 -2.282578 -14.900317 -8.995615 -2.208988 
-1.910435 44.282280 0.105449 -3.618170 -5.155770 -17.995199 -18.488501 -5.606640 -3.364850 19.677700 -0.517517 -2.423700 21.307400 5.419270 -4.502760 14.131500 7.287210 -2.391900 2.000000 -2.000000 0.000000 -106.523003 -39.463799 -145.557999 70.469299 -0.260556 0.128901 0.229655 -0.158545 124.269997 -2.000000 2.000000 0.000000 48.530800 37.948200 135.087997 -69.375504 0.263007 0.127960 -0.187583 0.167871 142.863007 -6.979362 7.006843 3.917840 39.500072 3.129961 2.624691 -23.551247 5.530529 3.394841 -11.888742 5.845260 22.812788 31.806152 -2.953125 -2.272622 -14.472534 -7.748421 -1.755502 
-2.140459 44.321373 0.120429 -3.648380 -5.292050 -19.312000 -18.683001 -5.901210 -3.621770 19.335899 -0.615095 -2.594320 21.460899 5.793150 -5.492680 14.311100 7.378920 -2.948020 2.000000 -2.000000 0.000000 -106.527000 -40.422501 -146.419006 73.516197 -0.253642 0.131147 0.230898 -0.158347 123.820000 -2.000000 2.000000 0.000000 47.451801 38.041801 137.399002 -74.834503 0.250616 0.131962 -0.176503 0.165555 146.906006 -6.570654 7.311541 4.456636 39.755322 3.132050 2.641582 -23.355633 5.927322 3.600370 -11.855054 6.008826 22.594294 31.569548 -2.954922 -2.247167 -14.129293 -6.462521 -1.277797 
-2.358587 44.383621 0.142710 -3.850730 -4.676960 -20.642799 -18.758900 -6.221480 -3.642200 19.326099 -0.371008 -2.648280 21.038200 6.007270 -6.191130 14.213200 7.400610 -3.318470 2.000000 -2.000000 0.000000 -106.666000 -41.146400 -147.013000 76.426300 -0.246936 0.132947 0.232435 -0.158089 123.264000 -2.000000 2.000000 0.000000 46.329899 38.021301 137.985001 -79.609901 0.239506 0.134482 -0.165640 0.152707 150.940002 -6.196506 6.923547 5.401749 39.832714 3.146426 2.645695 -22.410181 5.849603 3.529022 -12.071086 5.460641 22.606674 31.687805 -2.956956 -2.265521 -13.903272 -5.350897 -0.918804 
-2.576701 44.445744 0.164989 -4.072750 -4.062020 -21.976700 -18.844900 -6.544660 -3.669280 19.326200 -0.126924 -2.712120 20.606701 6.232510 -6.891520 14.115400 7.431910 -3.687290 2.000000 -2.000000 0.000000 -106.806000 -41.880001 -147.606995 79.326698 -0.240171 0.134399 0.233943 -0.157821 122.717003 -2.000000 2.000000 0.000000 45.208000 38.000702 138.561005 -84.395103 0.228202 0.136071 -0.155021 0.158634 154.973007 -5.823839 6.531931 6.363979 39.912498 3.130182 2.649274 -21.479477 5.751874 3.449043 -12.297071 4.916473 22.621031 31.853127 -2.968389 -2.256654 -13.701151 -4.261485 -0.544954 
-2.756488 44.516460 0.164055 -4.325200 -3.651710 -23.181601 -18.871901 -6.834690 -3.691650 19.306601 0.019527 -2.764090 20.348801 6.282470 -6.993450 14.055900 7.414140 -3.717770 2.000000 -2.000000 0.000000 -106.397003 -42.096401 -148.401001 82.188004 -0.233432 0.135495 0.234803 -0.157661 122.403999 -2.000000 2.000000 0.000000 44.319099 38.000999 138.414001 -88.115799 0.219344 0.136651 -0.153148 0.148102 155.695007 -5.593046 6.471707 7.116307 40.364021 3.125061 2.661081 -20.194525 5.174047 3.149382 -12.350851 4.677595 23.057932 31.969486 -2.988593 -2.270342 -13.566180 -3.640765 -0.292282 
-2.936262 44.587063 0.163121 -4.587480 -3.251290 -24.378401 -18.888901 -7.119130 -3.726960 19.296900 0.165975 -2.816150 20.091900 6.340900 -7.101110 13.996300 7.396360 -3.757980 2.000000 -2.000000 0.000000 -105.978996 -42.312901 -149.201004 85.049400 -0.226648 0.136253 0.235636 -0.157502 122.101997 -2.000000 2.000000 0.000000 43.439899 38.001202 138.268005 -91.855904 0.210737 0.117127 -0.151285 0.147312 156.417999 -5.371006 6.390037 7.858121 40.767872 3.111094 2.689821 -18.882532 4.576458 2.866070 -12.403282 4.434570 23.494667 32.036781 -3.004684 -2.273797 -13.360034 -2.996127 -0.048431 
-3.043029 44.637348 0.156395 -4.734060 -3.221420 -25.270901 -18.886900 -7.329230 -3.954500 19.247999 0.156209 -2.952790 19.871599 6.348110 -6.799640 13.968200 7.454800 -3.595470 2.000000 -2.000000 0.000000 -105.288002 -42.217999 -150.539001 87.373596 -0.221114 0.136619 0.235394 -0.157548 122.189003 -2.000000 2.000000 0.000000 42.872799 38.246300 137.731003 -93.623497 0.206826 0.116940 -0.155935 0.149233 154.621002 -5.443095 6.802461 8.150931 41.612755 3.094215 2.721630 -17.557093 3.182354 2.425191 -12.230669 4.454643 23.719219 31.788401 -3.024774 -2.243659 -13.076948 -2.602927 0.118940 
-3.149795 44.687630 0.149671 -4.870900 -3.201310 -26.163300 -18.874901 -7.539610 -4.184230 19.189400 0.156206 -3.089670 19.661800 6.354000 -6.504890 13.940100 7.513240 -3.423250 2.000000 -2.000000 0.000000 -104.606003 -42.123100 -151.858002 89.697800 -0.215570 0.136760 0.235152 -0.157595 122.277000 -2.000000 2.000000 0.000000 42.305698 38.481701 137.184998 -95.391098 0.202921 0.116633 -0.160644 0.160772 152.824005 -5.445300 7.215483 8.434121 42.360218 3.079949 2.774497 -16.196707 1.761316 1.997645 -12.096459 4.486771 23.957829 31.591463 -3.034413 -2.248351 -12.798299 -2.181308 0.287645 
-3.152908 44.721577 0.155677 -4.988610 -3.268850 -26.971100 -18.771299 -7.734370 -4.231340 19.267599 -0.107395 -3.142110 19.841299 6.375760 -6.212280 14.088300 7.528790 -3.254240 2.000000 -2.000000 0.000000 -103.991997 -42.057201 -152.990997 90.557198 -0.213425 0.156286 0.233808 -0.157845 122.765999 -2.000000 2.000000 0.000000 42.030602 38.766602 136.173004 -94.922302 0.203956 0.116726 -0.162941 0.161577 151.955002 -5.451100 7.602138 8.333426 43.187668 3.033365 2.814157 -15.525908 0.117601 1.583828 -12.006041 4.440396 24.058992 31.332718 -3.059679 -2.219583 -12.566710 -1.560938 0.478212 
-3.156030 44.755402 0.161682 -5.096600 -3.346120 -27.768700 -18.667101 -7.923480 -4.292590 19.335899 -0.371010 -3.195220 20.030600 6.396810 -5.916740 14.246200 7.534420 -3.085570 2.000000 -2.000000 0.000000 -103.378998 -41.981400 -154.123993 91.406799 -0.211253 0.156248 0.232462 -0.158084 123.253998 -2.000000 2.000000 0.000000 41.736000 39.051498 135.158005 -94.453598 0.204991 0.116811 -0.165276 0.152590 151.076004 -5.531223 7.988852 8.242939 44.041962 3.021362 2.855657 -14.828561 -1.535638 1.220759 -11.860279 4.375735 24.187546 31.034731 -3.084087 -2.190492 -12.355670 -0.950894 0.638413 
-3.082527 44.754379 0.166868 -5.215900 -3.685890 -28.755600 -18.573500 -7.906590 -4.164850 19.394501 -0.556526 -3.123480 20.002100 6.415500 -5.638670 14.246900 7.563250 -2.933930 2.000000 -2.000000 0.000000 -103.195000 -42.353901 -154.742004 90.098198 -0.214598 0.156292 0.231464 -0.158254 123.614998 -2.000000 2.000000 0.000000 41.275002 39.375801 133.977005 -92.080498 0.210240 0.117110 -0.162191 0.161318 152.238007 -5.276866 8.511016 8.382458 44.680592 3.007658 2.890154 -15.066470 -2.044748 1.142255 -11.674460 4.481731 24.164587 30.777515 -3.090551 -2.156520 -12.087052 -0.196535 0.836480 
-3.009035 44.753345 0.172052 -5.315950 -4.035360 -29.752001 -18.469601 -7.880770 -4.039900 19.443300 -0.751811 -3.061560 19.973101 6.434910 -5.350880 14.247400 7.582470 -2.774250 2.000000 -2.000000 0.000000 -103.000999 -42.726398 -155.376007 88.789597 -0.217737 0.136731 0.230466 -0.158417 123.976997 -2.000000 2.000000 0.000000 40.794300 39.700001 132.785995 -89.697800 0.215570 0.136723 -0.159102 0.150444 153.410004 -5.059150 8.987599 8.502787 45.367214 3.003038 2.917206 -15.323980 -2.524370 1.065516 -11.452214 4.566839 24.157734 30.509689 -3.113836 -2.146464 -11.860084 0.568916 1.036331 
